<svg width="64" height="64" viewBox="0 0 64 64" fill="none" xmlns="http://www.w3.org/2000/svg">
<circle cx="32" cy="32" r="32" fill="#21201F"/>
<path d="M47 30C48.1046 30 49 30.8954 49 32C49 33.1046 48.1046 34 47 34L47 30ZM15.5858 33.4142C14.8047 32.6332 14.8047 31.3668 15.5858 30.5858L28.3137 17.8579C29.0948 17.0768 30.3611 17.0768 31.1421 17.8579C31.9232 18.6389 31.9232 19.9052 31.1421 20.6863L19.8284 32L31.1421 43.3137C31.9232 44.0948 31.9232 45.3611 31.1421 46.1421C30.3611 46.9232 29.0948 46.9232 28.3137 46.1421L15.5858 33.4142ZM47 34L17 34L17 30L47 30L47 34Z" fill="white"/>
</svg>
