<svg width="760" height="286" viewBox="0 0 760 286" fill="none" xmlns="http://www.w3.org/2000/svg">
<path d="M78.7616 139.144C62.6733 139.144 48.7066 136.404 36.8615 130.923C25.1931 125.442 16.0882 117.487 9.54686 107.056C3.18229 96.6249 0 84.161 0 69.6639C0 55.1668 3.18229 42.7913 9.54686 32.5373C16.0882 22.1064 25.1931 14.1507 36.8615 8.67012C48.7066 3.18952 62.4965 0.449219 78.2312 0.449219C90.0763 0.449219 99.5348 1.50998 106.607 3.63149C113.678 5.75302 119.071 7.96295 122.783 10.2613V48.4487C118.01 45.62 112.794 43.3217 107.137 41.5537C101.48 39.609 94.673 38.6366 86.7173 38.6366C76.64 38.6366 68.7727 41.2885 63.1153 46.5923C57.6347 51.7194 54.8944 59.4099 54.8944 69.6639C54.8944 76.5589 56.132 82.3047 58.6071 86.9013C61.259 91.4979 64.9717 94.9454 69.7451 97.2437C74.6953 99.542 80.5295 100.691 87.2477 100.691C94.673 100.691 101.214 99.8956 106.872 98.3045C112.706 96.7133 118.01 94.3266 122.783 91.1443V129.332C119.424 131.63 114.12 133.84 106.872 135.962C99.6232 138.083 90.2532 139.144 78.7616 139.144Z" fill="white"/>
<path d="M190.385 38.6366C179.777 38.6366 170.142 39.6974 161.479 41.8189C152.993 43.9404 145.744 46.2388 139.733 48.7139V10.2613C147.335 7.25577 156.44 4.86905 167.048 3.10112C177.655 1.33319 188.528 0.449219 199.666 0.449219C213.456 0.449219 225.39 2.21715 235.467 5.75302C245.544 9.1121 253.235 14.6811 258.539 22.46C264.019 30.0621 266.759 40.2278 266.759 52.9569V115.011C266.759 118.017 266.848 121.818 267.025 126.415C267.201 130.835 267.467 134.194 267.82 136.492H217.699C217.169 133.84 216.55 130.481 215.843 126.415C215.313 122.348 214.871 118.547 214.517 115.011L213.456 100.956V56.4044C213.456 51.2774 212.395 47.4763 210.274 45.0012C208.152 42.3493 205.324 40.6698 201.788 39.9626C198.252 39.0786 194.451 38.6366 190.385 38.6366ZM213.456 87.1665L220.882 101.222C220.705 103.166 219.909 106.26 218.495 110.503C217.08 114.569 214.694 118.813 211.335 123.232C207.976 127.652 203.291 131.453 197.28 134.636C191.269 137.641 183.49 139.144 173.943 139.144C166.341 139.144 159.269 137.906 152.728 135.431C146.186 132.779 140.882 128.713 136.816 123.232C132.75 117.575 130.717 110.326 130.717 101.487C130.717 86.9897 136.728 75.6749 148.75 67.5424C160.948 59.2331 179.512 55.0784 204.44 55.0784H217.699V79.7411H204.175C196.396 79.7411 190.915 81.1555 187.733 83.9842C184.55 86.6361 182.959 89.9952 182.959 94.0614C182.959 98.1277 184.197 101.31 186.672 103.608C189.324 105.907 192.595 107.056 196.484 107.056C199.843 107.056 202.583 106.437 204.705 105.199C207.003 103.785 208.771 102.106 210.009 100.161C211.246 98.0393 212.13 95.8294 212.661 93.5311C213.191 91.2327 213.456 89.1112 213.456 87.1665Z" fill="white"/>
<path d="M409.926 136.492V66.7468L383.672 130.127H348.932L324.004 66.4816V136.492H281.574V3.10112H345.219L370.412 67.5424L397.727 3.10112H462.168L462.964 136.492H409.926Z" fill="white"/>
<path d="M549.937 100.691C554.18 100.691 557.981 99.542 561.34 97.2437C564.699 94.9454 567.351 91.4979 569.295 86.9013C571.24 82.3047 572.213 76.5589 572.213 69.6639C572.213 62.769 571.24 57.0232 569.295 52.4265C567.351 47.8299 564.699 44.4708 561.34 42.3493C557.981 40.051 554.18 38.9018 549.937 38.9018C545.87 38.9018 542.069 40.051 538.533 42.3493C535.174 44.4708 532.522 47.8299 530.578 52.4265C528.81 57.0232 527.926 62.769 527.926 69.6639C527.926 76.5589 528.81 82.3047 530.578 86.9013C532.522 91.4979 535.174 94.9454 538.533 97.2437C542.069 99.542 545.87 100.691 549.937 100.691ZM549.937 139.144C535.97 139.144 523.152 136.58 511.484 131.453C499.992 126.149 490.799 118.371 483.904 108.117C477.009 97.6857 473.562 84.8682 473.562 69.6639C473.562 54.6365 477.009 41.9957 483.904 31.7417C490.799 21.3109 499.992 13.5319 511.484 8.40493C522.976 3.10112 535.705 0.449219 549.671 0.449219C563.815 0.449219 576.721 3.10112 588.389 8.40493C600.058 13.5319 609.251 21.3109 615.969 31.7417C622.864 41.9957 626.311 54.6365 626.311 69.6639C626.311 84.8682 622.864 97.6857 615.969 108.117C609.251 118.371 600.058 126.149 588.389 131.453C576.898 136.58 564.08 139.144 549.937 139.144Z" fill="white"/>
<path d="M638.082 76.5589V40.2278H759.274V76.5589H638.082Z" fill="white"/>
<path d="M5.83419 149.056H58.8723V282.447H5.83419V149.056ZM156.728 282.447H96.2641L56.7507 216.679L101.303 149.056H150.628L107.667 215.353L99.4464 191.486L156.728 282.447ZM36.8615 236.303V197.32H89.8996V236.303H36.8615Z" fill="white"/>
<path d="M208.772 184.591C198.164 184.591 188.529 185.652 179.866 187.774C171.38 189.895 164.131 192.193 158.12 194.669V156.216C165.723 153.21 174.827 150.824 185.435 149.056C196.043 147.288 206.916 146.404 218.054 146.404C231.843 146.404 243.777 148.172 253.854 151.708C263.931 155.067 271.622 160.636 276.926 168.415C282.406 176.017 285.147 186.182 285.147 198.912V260.966C285.147 263.972 285.235 267.773 285.412 272.369C285.589 276.789 285.854 280.148 286.207 282.447H236.086C235.556 279.795 234.937 276.436 234.23 272.369C233.7 268.303 233.258 264.502 232.904 260.966L231.843 246.911V202.359C231.843 197.232 230.783 193.431 228.661 190.956C226.54 188.304 223.711 186.624 220.175 185.917C216.639 185.033 212.838 184.591 208.772 184.591ZM231.843 233.121L239.269 247.176C239.092 249.121 238.296 252.215 236.882 256.458C235.468 260.524 233.081 264.767 229.722 269.187C226.363 273.607 221.678 277.408 215.667 280.59C209.656 283.596 201.877 285.098 192.33 285.098C184.728 285.098 177.656 283.861 171.115 281.386C164.573 278.734 159.27 274.668 155.203 269.187C151.137 263.53 149.104 256.281 149.104 247.441C149.104 232.944 155.115 221.63 167.137 213.497C179.336 205.188 197.899 201.033 222.827 201.033H236.086V225.696H222.562C214.783 225.696 209.302 227.11 206.12 229.939C202.938 232.591 201.347 235.95 201.347 240.016C201.347 244.082 202.584 247.265 205.059 249.563C207.711 251.861 210.982 253.01 214.871 253.01C218.23 253.01 220.971 252.392 223.092 251.154C225.39 249.74 227.158 248.06 228.396 246.115C229.633 243.994 230.517 241.784 231.048 239.486C231.578 237.187 231.843 235.066 231.843 233.121Z" fill="white"/>
<path d="M327.338 154.36H380.376V282.447H327.338V154.36ZM289.68 149.056H418.298V188.039H289.68V149.056Z" fill="white"/>
<path d="M489.409 247.176C494.536 247.176 498.425 246.115 501.077 243.994C503.729 241.872 505.055 238.425 505.055 233.652C505.055 228.878 503.906 225.342 501.608 223.044C499.309 220.746 495.243 219.596 489.409 219.596H474.293V184.326H496.834C516.458 184.326 531.574 188.658 542.182 197.32C552.789 205.983 558.093 217.652 558.093 232.326C558.093 242.756 555.441 251.684 550.138 259.11C545.01 266.535 537.85 272.281 528.657 276.347C519.641 280.413 509.21 282.447 497.365 282.447H474.293V247.176H489.409ZM479.862 149.056V282.447H426.824V149.056H479.862ZM618.822 149.056V282.447H565.784V149.056H618.822Z" fill="white"/>
</svg>
